<?xml version="1.0" encoding="UTF-8" standalone="no"?>
<!-- Created with Inkscape (http://www.inkscape.org/) -->

<svg
   xmlns:dc="http://purl.org/dc/elements/1.1/"
   xmlns:cc="http://creativecommons.org/ns#"
   xmlns:rdf="http://www.w3.org/1999/02/22-rdf-syntax-ns#"
   xmlns:svg="http://www.w3.org/2000/svg"
   xmlns="http://www.w3.org/2000/svg"
   xmlns:xlink="http://www.w3.org/1999/xlink"
   xmlns:sodipodi="http://sodipodi.sourceforge.net/DTD/sodipodi-0.dtd"
   xmlns:inkscape="http://www.inkscape.org/namespaces/inkscape"
   version="1.1"
   width="100%"
   height="100%"
   viewBox="0 0 895.1351 560.87201"
   id="svg114"
   inkscape:version="0.48.4 r9939"
   sodipodi:docname="Bitmap_VS_SVG.svg">
  <sodipodi:namedview
     pagecolor="#ffffff"
     bordercolor="#666666"
     borderopacity="1"
     objecttolerance="10"
     gridtolerance="10"
     guidetolerance="10"
     inkscape:pageopacity="0"
     inkscape:pageshadow="2"
     inkscape:window-width="1366"
     inkscape:window-height="713"
     id="namedview55"
     showgrid="false"
     inkscape:zoom="0.95743769"
     inkscape:cx="447.56755"
     inkscape:cy="280.43601"
     inkscape:window-x="-2"
     inkscape:window-y="-3"
     inkscape:window-maximized="1"
     inkscape:current-layer="svg114"
     fit-margin-top="0"
     fit-margin-left="0"
     fit-margin-right="0"
     fit-margin-bottom="0" />
  <metadata
     id="metadata224">
    <rdf:RDF>
      <cc:Work
         rdf:about="">
        <dc:format>image/svg+xml</dc:format>
        <dc:type
           rdf:resource="http://purl.org/dc/dcmitype/StillImage" />
        <dc:title />
      </cc:Work>
    </rdf:RDF>
  </metadata>
  <defs
     id="defs116">
    <linearGradient
       x1="791.12482"
       y1="159.45061"
       x2="439.74969"
       y2="426.20889"
       id="linearGradient192"
       gradientUnits="userSpaceOnUse"
       gradientTransform="translate(-10.0599,-10.001101)">
      <stop
         id="stop119"
         style="stop-color:#3333ff;stop-opacity:1"
         offset="0" />
      <stop
         id="stop121"
         style="stop-color:#3f3fff;stop-opacity:0"
         offset="1" />
    </linearGradient>
    <linearGradient
       x1="312.3125"
       y1="168.0827"
       x2="-39.062599"
       y2="434.841"
       id="linearGradient4345"
       gradientUnits="userSpaceOnUse"
       gradientTransform="translate(-10.0599,-10.001101)">
      <stop
         id="stop124"
         style="stop-color:#333333;stop-opacity:1"
         offset="0" />
      <stop
         id="stop126"
         style="stop-color:#ffffff;stop-opacity:0"
         offset="1" />
    </linearGradient>
  </defs>
  <g
     id="Vector"
     style="fill:#282890;fill-opacity:1"
     transform="translate(-10.0599,-10.001101)">
    <path
       d="m 568.6259,522.8354 -27.832,-72.9004 10.3027,0 23.0957,61.377 23.1445,-61.377 10.2539,0 -27.7832,72.9004 -11.1816,0 z"
       id="path170"
       style="fill:#282890;fill-opacity:1"
       inkscape:connector-curvature="0" />
    <path
       d="m 704.8622,470.2475 0,8.3984 q -3.8086,-2.0996 -7.666,-3.125 -3.8086,-1.0742 -7.7149,-1.0742 -8.7402,0 -13.5742,5.5664 -4.834,5.5176 -4.834,15.5274 0,10.0098 4.834,15.5762 4.834,5.5176 13.5742,5.5176 3.9063,0 7.7149,-1.0254 3.8574,-1.0742 7.666,-3.1738 l 0,8.3008 q -3.7598,1.7578 -7.8125,2.6367 -4.0039,0.8789 -8.5449,0.8789 -12.3535,0 -19.6289,-7.7637 -7.2754,-7.7637 -7.2754,-20.9473 0,-13.3789 7.3242,-21.0449 7.3731,-7.666 20.166,-7.666 4.1504,0 8.1055,0.8789 3.9551,0.8301 7.666,2.5391 z"
       id="path174"
       style="fill:#282890;fill-opacity:1"
       inkscape:connector-curvature="0" />
    <path
       d="m 726.4716,452.6205 0,15.5274 18.5059,0 0,6.9824 -18.5059,0 0,29.6875 q 0,6.6894 1.8066,8.5938 1.8555,1.9043 7.4707,1.9043 l 9.2285,0 0,7.5195 -9.2285,0 q -10.4004,0 -14.3555,-3.8574 -3.9551,-3.9063 -3.9551,-14.1602 l 0,-29.6875 -6.5918,0 0,-6.9824 6.5918,0 0,-15.5274 9.0332,0 z"
       id="path176"
       style="fill:#282890;fill-opacity:1"
       inkscape:connector-curvature="0" />
    <path
       d="m 775.0341,474.4467 q -7.2266,0 -11.4258,5.6641 -4.1992,5.6152 -4.1992,15.4297 0,9.8145 4.1504,15.4785 4.1992,5.6152 11.4746,5.6152 7.1777,0 11.377,-5.6641 4.1993,-5.6641 4.1992,-15.4297 0,-9.7168 -4.1992,-15.3809 -4.1992,-5.7129 -11.3769,-5.7129 z m 0,-7.6172 q 11.7188,0 18.4082,7.6172 6.6894,7.6172 6.6894,21.0938 0,13.4277 -6.6894,21.0938 -6.6894,7.6172 -18.4082,7.6172 -11.7676,0 -18.457,-7.6172 -6.6406,-7.666 -6.6406,-21.0938 0,-13.4766 6.6406,-21.0938 6.6895,-7.6172 18.457,-7.6172 z"
       id="path178"
       style="fill:#282890;fill-opacity:1"
       inkscape:connector-curvature="0" />
    <path
       d="m 843.6649,476.5463 q -1.5137,-0.8789 -3.3203,-1.2695 -1.7578,-0.4395 -3.9063,-0.4395 -7.6172,0 -11.7188,4.9805 -4.0527,4.9316 -4.0527,14.209 l 0,28.8086 -9.0332,0 0,-54.6875 9.0332,0 0,8.4961 q 2.832,-4.9805 7.3731,-7.373 4.541,-2.4414 11.0352,-2.4414 0.9277,0 2.0508,0.1465 1.1231,0.0977 2.4902,0.3418 l 0.0488,9.2285 z"
       id="path180"
       style="fill:#282890;fill-opacity:1"
       inkscape:connector-curvature="0" />
    <use
       transform="translate(302.80678,-41.274189)"
       id="use4358"
       style="fill:#282890;fill-opacity:1"
       x="0"
       y="0"
       width="915.19501"
       height="585.14453"
       xlink:href="#sans-e" />
  </g>
  <g
     transform="translate(-48.319902,-58.099389)"
     id="Raster">
    <path
       d="m 144.8585,529.5563 q 3.1738,1.0742 6.1524,4.5899 3.0273,3.5156 6.0547,9.668 l 10.0098,19.9219 -10.5957,0 -9.3262,-18.7012 q -3.6133,-7.3242 -7.0313,-9.7168 -3.3691,-2.3926 -9.2285,-2.3926 l -10.7422,0 0,30.8105 -9.8633,0 0,-72.9004 22.2656,0 q 12.5,0 18.6523,5.2246 6.1523,5.2246 6.1523,15.7715 0,6.8848 -3.2226,11.4258 -3.1738,4.541 -9.2774,6.2988 z m -24.707,-30.6152 0,25.8789 12.4023,0 q 7.1289,0 10.7422,-3.2715 3.6621,-3.3203 3.6621,-9.7168 0,-6.3965 -3.6621,-9.6191 -3.6133,-3.2715 -10.7422,-3.2715 l -12.4023,0 z"
       id="path184"
       inkscape:connector-curvature="0" />
    <path
       d="m 196.2239,536.2457 q -10.8887,0 -15.0879,2.4902 -4.1992,2.4902 -4.1992,8.4961 0,4.7851 3.125,7.6172 3.1738,2.7832 8.5938,2.7832 7.4707,0 11.9629,-5.2734 4.541,-5.3223 4.541,-14.1113 l 0,-2.0019 -8.9356,0 z m 17.9199,-3.7109 0,31.2012 -8.9844,0 0,-8.3008 q -3.0762,4.9805 -7.666,7.3731 -4.5898,2.3438 -11.2305,2.3438 -8.3984,0 -13.3789,-4.6875 -4.9316,-4.7363 -4.9316,-12.6465 0,-9.2285 6.1523,-13.916 6.2012,-4.6875 18.457,-4.6875 l 12.5977,0 0,-0.8789 q 0,-6.2012 -4.1016,-9.5703 -4.0527,-3.418 -11.4258,-3.418 -4.6875,0 -9.1309,1.1231 -4.4434,1.1231 -8.5449,3.3691 l 0,-8.3008 q 4.9316,-1.9043 9.5703,-2.832 4.6387,-0.9766 9.0332,-0.9766 11.8652,0 17.7246,6.1524 5.8594,6.1524 5.8594,18.6523 z"
       id="path186"
       inkscape:connector-curvature="0" />
    <path
       d="m 261.6518,510.6598 0,8.4961 q -3.8086,-1.9531 -7.9101,-2.9297 -4.1015,-0.9766 -8.4961,-0.9766 -6.6894,0 -10.0586,2.0508 -3.3203,2.0508 -3.3203,6.1523 0,3.125 2.3926,4.9316 2.3926,1.7578 9.6191,3.3691 l 3.0762,0.6836 q 9.5703,2.0508 13.5742,5.8106 4.0527,3.7109 4.0527,10.4004 0,7.6172 -6.0547,12.0605 -6.0059,4.4434 -16.5527,4.4434 -4.3945,0 -9.1797,-0.8789 -4.7363,-0.8301 -10.0098,-2.5391 l 0,-9.2773 q 4.9805,2.5879 9.8145,3.9063 4.834,1.2695 9.5703,1.2695 6.3477,0 9.7656,-2.1484 3.418,-2.1973 3.418,-6.1523 0,-3.6621 -2.4902,-5.6152 -2.4414,-1.9531 -10.791,-3.7598 l -3.125,-0.7324 q -8.3496,-1.7578 -12.0605,-5.3711 -3.7109,-3.6621 -3.7109,-10.0098 0,-7.7148 5.4688,-11.9141 5.4688,-4.1993 15.5274,-4.1992 4.9805,0 9.375,0.7324 4.3945,0.7324 8.1055,2.1973 z"
       id="path188"
       inkscape:connector-curvature="0" />
    <path
       d="m 281.9136,493.5211 0,15.5273 18.5059,0 0,6.9824 -18.5059,0 0,29.6875 q 0,6.6895 1.8066,8.5938 1.8555,1.9043 7.4707,1.9043 l 9.2285,0 0,7.5195 -9.2285,0 q -10.4004,0 -14.3555,-3.8574 -3.9551,-3.9063 -3.9551,-14.1602 l 0,-29.6875 -6.5918,0 0,-6.9824 6.5918,0 0,-15.5273 9.0332,0 z"
       id="path190"
       inkscape:connector-curvature="0" />
    <path
       d="m 353.1521,534.1461 0,4.3945 -41.3086,0 c 0.3906,6.18487 2.24607,10.90493 5.5664,14.1602 11.45946,6.87367 23.37954,5.14757 33.6426,-0.2441 l 0,8.4961 c -6.60794,2.73918 -13.58867,4.17319 -20.2148,4.1992 -8.72393,0 -15.64127,-2.53907 -20.752,-7.6172 -5.07813,-5.07813 -7.6172,-11.94663 -7.6172,-20.6055 0,-8.9518 2.40887,-16.04817 7.2266,-21.2891 10.71927,-9.69749 27.8253,-10.68721 37.0117,-0.7813 4.41445,6.26083 6.38484,13.33542 6.4453,19.2872 z m -8.9844,-2.6367 c -0.0651,-4.9154 -1.4486,-8.83793 -4.1504,-11.7676 -6.38773,-5.99624 -16.85372,-5.44943 -22.705,-0.1464 -2.9948,2.832 -4.72007,6.81963 -5.1758,11.9629 l 32.0312,-0.0488 z"
       id="sans-e"
       inkscape:connector-curvature="0" />
    <path
       d="m 393.6776,517.4469 q -1.5137,-0.8789 -3.3203,-1.2695 -1.7578,-0.4395 -3.9063,-0.4395 -7.6172,0 -11.7188,4.9805 -4.0527,4.9316 -4.0527,14.209 l 0,28.8086 -9.0332,0 0,-54.6875 9.0332,0 0,8.4961 q 2.832,-4.9805 7.3731,-7.3731 4.541,-2.4414 11.0352,-2.4414 0.9277,0 2.0508,0.1465 1.123,0.0976 2.4902,0.3418 l 0.0488,9.2285 z"
       id="path194"
       inkscape:connector-curvature="0" />
  </g>
  <text
     sodipodi:linespacing="125%"
     id="text3032"
     y="552.45404"
     x="515.74188"
     style="font-size:10px;font-style:normal;font-weight:normal;line-height:125%;letter-spacing:0px;word-spacing:0px;fill:#282890;fill-opacity:1;stroke:none;font-family:Times New Roman;-inkscape-font-specification:Sans"
     xml:space="preserve"><tspan
       style="font-size:40px;fill:#282890;fill-opacity:1;font-family:arial;-inkscape-font-specification:arial"
       y="552.45404"
       x="515.74188"
       id="tspan3034"
       sodipodi:role="line">.emf .svg .pdf .eps</tspan></text>
  <text
     xml:space="preserve"
     style="font-size:10px;font-style:normal;font-weight:normal;line-height:125%;letter-spacing:0px;word-spacing:0px;fill:#000000;fill-opacity:1;stroke:none;font-family:Times New Roman;-inkscape-font-specification:Sans"
     x="41.372906"
     y="552.45404"
     id="text3036"
     sodipodi:linespacing="125%"><tspan
       sodipodi:role="line"
       id="tspan3038"
       x="41.372906"
       y="552.45404"
       style="font-size:40px;font-family:arial;-inkscape-font-specification:arial">.bmp .jpeg .png</tspan></text>
  <path
     d="M 186.9085,87.806199 C 277.3499,221.5219 377.3238,163.2295 390.2315,246.4122 c -11.9148,114.33 -136.829,115.5743 -369.6074,116.457 -4.3017,-1.0684 -1.9344,-3.592 -0.6148,-37.262 C 96.0211,288.3184 171.1325,199.6726 186.9085,87.806299 z"
     id="RasterGradient"
     style="fill:url(#linearGradient4345)"
     inkscape:connector-curvature="0" />
  <path
     d="m 1.7251,1.7838986 410.8837,0 0,410.8837014 -410.8837,0 z"
     id="path196"
     style="fill:none;stroke:#000000;stroke-width:3.45020008"
     inkscape:connector-curvature="0" />
  <path
     d="m 478.8911,1.7250986 414.5189,0 0,411.0295014 -414.5189,0 z"
     id="path198"
     style="fill:none;stroke:#404091;stroke-width:3.45020008"
     inkscape:connector-curvature="0" />
  <path
     d="m 865.7644,234.5007 c -11.9148,114.33 -133.5496,118.8537 -366.328,119.7364 -4.3017,-1.0684 -1.9344,-3.592 -0.6148,-37.262 C 574.8334,279.6863 632.80688,206.04704 648.58288,94.180739 686.59772,142.21296 857.67075,194.9765 865.7644,234.5007 z"
     id="VectorGradient"
     style="fill:url(#linearGradient192)"
     inkscape:connector-curvature="0" />
  <g
     transform="matrix(1.35527,0,0,1.28322,-166.36568,-643.12736)"
     id="RasterLarge">
    <path
       d="m 287.1429,729.5051 -30,0 0,-60 20,0 0,20 10,0 0,10 10,0 0,10 20,0 0,10 40,0 0,-10 20,0 0,-20 10,0 0,-20 -10,0 0,-10 -10,0 0,-10 -40,0 0,-10 -30,0 0,-10 -20,0 0,-10 -10,0 0,-10 -10,0 0,-60 10,0 0,-10 10,0 0,-10 10,0 0,-10 90,0 0,10 30,0 0,60 -20,0 0,-10 -10,0 0,-20 -10,0 0,-10 -20,0 0,-10 -30,0 0,10 -20,0 0,10 -10,0 0,20 10,0 0,20 30,0 0,10 30,0 0,10 30,0 0,10 10,0 0,10 10,0 0,10 10,0 0,60 -10,0 0,10 -10,0 0,10 -10,0 0,10 -100,0 0,-10 z"
       id="path204"
       style="fill:#979797"
       inkscape:connector-curvature="0" />
    <path
       d="m 297.1429,729.5051 -30,0 0,-10 -10,0 0,-50 20,0 0,20 10,0 0,20 10,0 10,0 0,10 60,0 0,-10 10,0 0,-10 10,0 0,-40 -20,0 0,-10 -20,0 0,-10 -40,0 0,-10 -20,0 0,-10 -20,0 0,-20 -10,0 0,-50 10,0 0,-10 10,0 0,-10 20,0 0,-10 70,0 0,10 30,0 0,10 10,0 0,50 -20,0 0,-20 -10,0 0,-20 -20,0 0,-10 -50,0 0,10 -10,0 0,10 -10,0 0,30 10,0 0,10 20,0 0,10 30,0 0,10 30,0 0,10 20,0 0,10 10,0 0,10 10,0 0,50 -10,0 0,20 -10,0 0,10 -20,0 0,10 -80,0 z"
       id="path206"
       style="fill:#555555"
       inkscape:connector-curvature="0" />
    <path
       d="m 307.1429,729.5051 -30,0 0,-10 -20,0 0,-50 20,0 0,30 10,0 0,10 10,0 0,10 70,0 0,-10 20,0 0,-50 -10,0 0,-10 -20,0 0,-10 -40,0 0,-10 -30,0 0,-10 -10,0 0,-10 -10,0 0,-20 -10,0 0,-30 10,0 0,-20 20,0 0,-10 20,0 0,-10 50,0 0,10 30,0 0,10 20,0 0,50 -20,0 0,-30 -10,0 0,-10 -10,0 0,-10 -70,0 0,10 -10,0 0,40 10,0 0,10 10,0 0,10 30,0 0,10 40,0 0,10 20,0 0,10 10,0 0,20 10,0 0,40 -10,0 0,20 -20,0 0,10 -30,0 0,10 -50,0 0,-10 z"
       id="path208"
       style="fill:#000000"
       inkscape:connector-curvature="0" />
  </g>
  <path
     d="m 649.89973,283.27975 0,-62.4662 23.78151,0.18371 c -1.01071,61.49272 93.82963,73.05392 135.34794,48.22763 21.39465,-17.53681 26.4767,-50.46192 7.65143,-68.25353 C 773.11597,169.93084 702.14354,173.60118 664.27204,139.60746 635.8341,105.58647 643.95954,58.402046 678.27356,33.877474 740.62175,6.1115226 796.57081,17.795107 854.21419,33.41492 l 0,58.424249 -23.36791,0 c -4.5044,-41.043403 -45.45215,-53.094809 -81.7272,-53.337136 -48.73789,4.00185 -86.70692,42.202753 -49.79502,75.567727 45.8982,30.05214 115.79723,26.39806 152.512,60.90447 27.88628,31.7753 13.76265,86.54478 -17.42335,109.31261 -66.02951,27.8894 -124.40465,19.43804 -184.51287,-1.00728 z"
     id="VectorLarge"
     style="fill:#00005f"
     inkscape:connector-curvature="0" />
  <use
     transform="matrix(0.15161479,0,0,0.17311505,-7.8050348,313.16982)"
     id="RasterSmall"
     x="0"
     y="0"
     width="915.19501"
     height="585.14453"
     xlink:href="#RasterLarge" />
  <use
     transform="matrix(0.1489017,0,0,0.16997699,399.17262,304.84074)"
     id="VectorSmall"
     x="0"
     y="0"
     width="915.19501"
     height="585.14453"
     xlink:href="#VectorLarge" />
</svg>
